<svg width="450" height="220" viewBox="0 0 450 220" fill="none" xmlns="http://www.w3.org/2000/svg">
<g clip-path="url(#clip0_1439_2)">
<path d="M285.738 132.018C278.573 132.018 272.579 129.598 267.758 124.757C262.981 119.918 260.593 113.878 260.593 106.639C260.593 99.4005 262.981 93.3839 267.758 88.5897C272.534 83.704 278.527 81.2612 285.738 81.2612C293.038 81.2612 298.964 83.9076 303.515 89.2004L299.054 93.5432C295.583 89.3361 291.144 87.2325 285.738 87.2325C280.374 87.2325 275.891 89.042 272.287 92.6611C268.727 96.2358 266.947 100.895 266.947 106.639C266.947 112.384 268.727 117.045 272.287 120.622C275.892 124.242 280.375 126.052 285.738 126.051C291.37 126.051 296.259 123.676 300.406 118.926L304.935 123.336C302.642 126.092 299.752 128.285 296.485 129.748C293.107 131.271 289.441 132.045 285.738 132.018ZM315.221 82.3469V130.932H309.003V82.3469H315.221ZM319.716 114.307C319.716 109.196 321.315 104.967 324.515 101.618C327.759 98.2705 331.838 96.5967 336.749 96.5967C341.661 96.5967 345.717 98.2705 348.916 101.618C352.161 104.963 353.783 109.193 353.783 114.307C353.783 119.464 352.161 123.694 348.916 126.996C345.718 130.345 341.662 132.019 336.749 132.018C331.837 132.017 327.758 130.342 324.515 126.992C321.315 123.648 319.716 119.42 319.716 114.307ZM325.934 114.307C325.934 117.882 326.971 120.777 329.044 122.993C331.117 125.209 333.685 126.316 336.749 126.316C339.815 126.316 342.383 125.209 344.455 122.993C346.527 120.777 347.564 117.882 347.564 114.307C347.564 110.779 346.528 107.906 344.455 105.69C342.34 103.429 339.771 102.298 336.749 102.297C333.727 102.296 331.159 103.427 329.044 105.69C326.972 107.907 325.935 110.78 325.934 114.307ZM387.291 130.932H381.342V126.318H381.066C380.12 127.946 378.667 129.304 376.706 130.389C374.84 131.45 372.734 132.011 370.589 132.018C366.534 132.018 363.413 130.853 361.227 128.523C359.041 126.192 357.948 122.879 357.949 118.582V97.6824H364.168V118.178C364.303 123.606 367.029 126.321 372.347 126.321C374.824 126.321 376.897 125.314 378.565 123.3C380.234 121.287 381.067 118.878 381.066 116.074V97.6824H387.285L387.291 130.932ZM407.493 132.018C403.171 132.018 399.453 130.299 396.34 126.861C393.275 123.377 391.743 119.193 391.744 114.307C391.744 109.422 393.277 105.237 396.34 101.754C399.449 98.3167 403.167 96.5977 407.493 96.5967C409.926 96.5967 412.146 97.117 414.152 98.1574C416.157 99.1979 417.701 100.578 418.781 102.297H419.057L418.781 97.6824V82.3469H425V130.932H419.052V126.318H418.776C417.698 128.038 416.156 129.417 414.149 130.454C412.142 131.492 409.924 132.013 407.493 132.018ZM408.507 126.318C411.571 126.318 414.072 125.21 416.01 122.994C418.038 120.779 419.052 117.883 419.052 114.309C419.052 110.826 418.038 107.954 416.01 105.691C414.028 103.43 411.527 102.299 408.507 102.298C405.533 102.298 403.032 103.429 401.004 105.691C398.976 107.953 397.962 110.825 397.962 114.309C397.962 117.837 398.976 120.71 401.004 122.926C403.032 125.188 405.533 126.319 408.507 126.318Z" fill="#5F6368"/>
<path d="M52.9206 109.624V102.11H77.9718C78.2505 103.629 78.3863 105.172 78.3774 106.717C78.3774 112.35 76.8406 119.327 71.8938 124.29C67.085 129.322 60.9381 132.005 52.7881 132.005C37.6912 132.005 25 119.662 25 104.503C25 89.343 37.6912 77 52.7895 77C61.1422 77 67.0864 80.2876 71.5614 84.5805L66.2835 89.8789C63.0735 86.8613 58.735 84.5127 52.7895 84.5127C41.7675 84.5127 33.1499 93.4337 33.1499 104.503C33.1499 115.572 41.7675 124.5 52.7895 124.5C59.9379 124.5 64.0129 121.615 66.6174 118.999C68.7404 116.868 70.1391 113.81 70.6813 109.631L52.9206 109.624Z" fill="#4285F4"/>
<path d="M116.547 114.296C116.547 124.499 108.596 132.005 98.8459 132.005C89.0958 132.005 81.1445 124.499 81.1445 114.296C81.1445 104.033 89.0944 96.5869 98.8487 96.5869C108.603 96.5869 116.547 104.033 116.547 114.296ZM108.799 114.296C108.799 107.926 104.19 103.564 98.8459 103.564C93.5019 103.564 88.8917 107.923 88.8917 114.296C88.8917 120.601 93.5005 125.028 98.8459 125.028C104.191 125.028 108.799 120.601 108.799 114.296Z" fill="#EA4335"/>
<path d="M155.166 114.296C155.166 124.499 147.222 132.005 137.465 132.005C127.707 132.005 119.762 124.499 119.762 114.296C119.762 104.033 127.71 96.5869 137.465 96.5869C147.219 96.5869 155.166 104.033 155.166 114.296ZM147.417 114.296C147.417 107.926 142.809 103.564 137.465 103.564C132.12 103.564 127.51 107.923 127.51 114.296C127.51 120.601 132.119 125.028 137.465 125.028C142.81 125.028 147.417 120.601 147.417 114.296Z" fill="#FBBC04"/>
<path d="M192.181 97.6602V129.456C192.181 142.537 184.499 147.903 175.414 147.903C166.861 147.903 161.718 142.134 159.782 137.439L166.533 134.621C167.734 137.506 170.671 140.926 175.418 140.926C181.23 140.926 184.837 137.304 184.837 130.529V127.981H184.569C182.833 130.127 179.493 132.005 175.284 132.005C166.465 132.005 158.383 124.29 158.383 114.364C158.383 104.368 166.465 96.5869 175.284 96.5869C179.493 96.5869 182.833 98.4647 184.569 100.545H184.837V97.6602H192.181ZM185.367 114.364C185.367 108.125 181.228 103.562 175.948 103.562C170.604 103.562 166.127 108.124 166.127 114.364C166.127 120.535 170.604 125.027 175.948 125.027C181.226 125.028 185.367 120.535 185.367 114.364Z" fill="#4285F4"/>
<path d="M205.307 79.0523V130.932H197.559V79.0523H205.307Z" fill="#34A853"/>
<path d="M235.231 120.132L241.243 124.157C239.311 127.041 234.629 132.005 226.546 132.005C216.525 132.005 209.043 124.224 209.043 114.296C209.043 103.771 216.593 96.5869 225.677 96.5869C234.829 96.5869 239.304 103.899 240.775 107.857L241.576 109.869L217.987 119.662C219.792 123.217 222.598 125.028 226.54 125.028C230.483 125.028 233.227 123.084 235.231 120.132ZM216.725 113.762L232.491 107.189C231.622 104.973 229.018 103.433 225.944 103.433C222.003 103.429 216.525 106.912 216.725 113.76V113.762Z" fill="#EA4335"/>
</g>
<defs>
<clipPath id="clip0_1439_2">
<rect width="450" height="220" fill="white"/>
</clipPath>
</defs>
</svg>
