<svg xmlns="http://www.w3.org/2000/svg" id="nerd" overflow="visible" viewBox="0 0 110 140" role="img">
    <title xml:lang="en">Nerd logo animation</title>
  <style>
    .st0,.st1,.st2{fill:none;stroke:#ff313c;stroke-width:3.3;stroke-linecap:round;stroke-linejoin:round;}.st1,.st2{stroke:#00a5a1}.st2{stroke:#ffb300}
    path, circle {
      stroke-dasharray: 600 600;
      stroke-dashoffset: 600;
      animation: borderanimation 5s ease-out forwards;
    }
    path:nth-of-type(1), circle:nth-of-type(1) { animation-delay: 0.05s; }
    path:nth-of-type(2), circle:nth-of-type(2) { animation-delay: 0.1s; }
    path:nth-of-type(3), circle:nth-of-type(3) { animation-delay: 0.15s; }
    path:nth-of-type(4), circle:nth-of-type(4) { animation-delay: 0.2s; }
    path:nth-of-type(5), circle:nth-of-type(5) { animation-delay: 0.25s; }
    path:nth-of-type(6), circle:nth-of-type(6) { animation-delay: 0.3s; }
    path:nth-of-type(7), circle:nth-of-type(7) { animation-delay: 0.35s; }
    path:nth-of-type(8), circle:nth-of-type(8) { animation-delay: 0.4s; }
    path:nth-of-type(9), circle:nth-of-type(9) { animation-delay: 0.45s; }
    path:nth-of-type(10), circle:nth-of-type(10) { animation-delay: 0.5s; }
    path:nth-of-type(11), circle:nth-of-type(11) { animation-delay: 0.55s; }
    path:nth-of-type(12), circle:nth-of-type(12) { animation-delay: 0.6s; }
    path:nth-of-type(13), circle:nth-of-type(13) { animation-delay: 0.65s; }
    path:nth-of-type(14), circle:nth-of-type(14) { animation-delay: 0.7s; }
    path:nth-of-type(15), circle:nth-of-type(15) { animation-delay: 0.75s; }
    path:nth-of-type(16), circle:nth-of-type(16) { animation-delay: 0.8s; }
    path:nth-of-type(17), circle:nth-of-type(17) { animation-delay: 0.85s; }
    path:nth-of-type(18), circle:nth-of-type(18) { animation-delay: 0.9s; }
    path:nth-of-type(19), circle:nth-of-type(19) { animation-delay: 0.95s; }
    path:nth-of-type(20), circle:nth-of-type(20) { animation-delay: 1s; }
    path:nth-of-type(21), circle:nth-of-type(21) { animation-delay: 1.05s; }
    path:nth-of-type(22), circle:nth-of-type(22) { animation-delay: 1.1s; }
    @keyframes borderanimation { to { stroke-dashoffset: 0; } }
  </style>
  <path d="M10.3 66.2a8.6 8.6 0 0 1-8.6-8.6V10.3c0-4.8 3.9-8.6 8.6-8.6s8.6 3.9 8.6 8.6v47.3c0 4.8-3.9 8.6-8.6 8.6z" class="st0"/>
  <path d="M39.5 66.2a8.6 8.6 0 0 1-8.6-8.6V10.3c0-4.8 3.9-8.6 8.6-8.6s8.6 3.9 8.6 8.6v47.3c.1 4.8-3.8 8.6-8.6 8.6z" class="st1"/>
  <path d="M39.5 48.2c-2.3 0-4.5-.9-6.1-2.5L4.2 16.4a8.62 8.62 0 0 1-2.5-6.1c0-2.3.9-4.5 2.5-6.1C5.8 2.5 8 1.6 10.3 1.6s4.5.9 6.1 2.5l29.3 29.3c3.4 3.4 3.4 8.8 0 12.2a8.7 8.7 0 0 1-6.2 2.6z" class="st2"/>
  <path d="M10.3 13.7c-1.9 0-3.4-1.5-3.4-3.4s1.5-3.4 3.4-3.4 3.4 1.5 3.4 3.4-1.6 3.4-3.4 3.4z" class="st0"/>
  <path d="M39.5 42.9c-1.9 0-3.4-1.5-3.4-3.4s1.5-3.4 3.4-3.4 3.4 1.5 3.4 3.4-1.5 3.4-3.4 3.4z" class="st1"/>
  <path d="M69.1 19.2a8.5 8.5 0 1 1 0-17h29a8.5 8.5 0 1 1 0 17h-29z" class="st2"/>
  <path d="M69.1 66.2a8.5 8.5 0 1 1 0-17h29a8.5 8.5 0 1 1 0 17h-29z" class="st0"/>
  <path d="M69.1 66.2a8.5 8.5 0 0 1-8.5-8.5v-47a8.5 8.5 0 1 1 17 0v47c.1 4.7-3.8 8.5-8.5 8.5z" class="st1"/>
  <path d="M69.1 42.8a8.5 8.5 0 1 1 0-17H87a8.5 8.5 0 1 1 0 17H69.1z" class="st0"/>
  <circle cx="69.1" cy="34.2" r="3.4" class="st2"/>
  <circle cx="69.1" cy="10.6" r="3.4" class="st1"/>
  <circle cx="69.1" cy="57.6" r="3.4" class="st1"/>
<g transform="translate(-116 71)"> 
  <path d="M126.7 48.4c-4.8 0-8.6-3.9-8.6-8.6s3.9-8.6 8.6-8.6c11.4 0 20.7-9.3 20.7-20.7 0-4.8 3.9-8.6 8.6-8.6s8.6 3.9 8.6 8.6c.1 20.9-16.9 37.9-37.9 37.9z" class="st1"/>
  <path d="M126.7 66.6a8.6 8.6 0 0 1-8.6-8.6V10.5a8.6 8.6 0 1 1 17.2 0v20c-2 2.8-2.2 6.5-.4 9.4l.4.6V58c.1 4.7-3.8 8.6-8.6 8.6z" class="st0"/>
  <path d="M156 66.6c-3 0-5.8-1.5-7.4-4.1L134.8 40a8.7 8.7 0 0 1 2.8-11.9c1.4-.8 2.9-1.3 4.5-1.3.7 0 1.3.1 2 .2 2.2.5 4.2 1.9 5.4 3.9l13.9 22.5a8.55 8.55 0 0 1-2.8 11.9c-1.4.8-3 1.3-4.6 1.3z" class="st2"/>
  <path d="M126.7 19.1c-4.8 0-8.6-3.9-8.6-8.6s3.9-8.6 8.6-8.6H156c4.8 0 8.6 3.9 8.6 8.6s-3.9 8.6-8.6 8.6h-29.3z" class="st1"/>
  <path d="M126.7 43.2c-1.9 0-3.4-1.5-3.4-3.4s1.5-3.4 3.4-3.4 3.4 1.5 3.4 3.4-1.5 3.4-3.4 3.4z" class="st1"/>
  <path d="M126.7 13.9c-1.9 0-3.4-1.5-3.4-3.4s1.5-3.4 3.4-3.4 3.4 1.5 3.4 3.4-1.5 3.4-3.4 3.4z" class="st2"/>
  <path d="M156 13.9c-1.9 0-3.4-1.5-3.4-3.4s1.5-3.4 3.4-3.4 3.4 1.5 3.4 3.4-1.6 3.4-3.4 3.4z" class="st0"/>
  <path d="M142.2 38.9c-1.9 0-3.4-1.5-3.4-3.4s1.5-3.4 3.4-3.4 3.4 1.5 3.4 3.4c0 1.8-1.6 3.4-3.4 3.4z" class="st1"/>
</g>
<g transform="translate(-116 71)">  
  <path d="M185.3 66.3c-4.7 0-8.6-3.9-8.6-8.6V10.4c0-4.7 3.9-8.6 8.6-8.6 4.7 0 8.6 3.9 8.6 8.6v47.3c0 4.7-3.9 8.6-8.6 8.6z" class="st2"/>
  <path d="M185.3 13.8c-1.9 0-3.4-1.5-3.4-3.4s1.5-3.4 3.4-3.4 3.4 1.5 3.4 3.4-1.6 3.4-3.4 3.4z" class="st1"/>
  <path d="M185.3 61.1c-1.9 0-3.4-1.5-3.4-3.4s1.5-3.4 3.4-3.4 3.4 1.5 3.4 3.4-1.6 3.4-3.4 3.4z" class="st0"/>
  <path d="M214.5 36.9c-1.9 0-3.4-1.5-3.4-3.4s1.5-3.4 3.4-3.4 3.4 1.5 3.4 3.4-1.5 3.4-3.4 3.4z" class="st2"/>
  <path d="M214.5 42.1c-4.7 0-8.6-3.9-8.6-8.6V25c0-3.3-2.7-6-6-6h-14.6c-4.7 0-8.6-3.9-8.6-8.6s3.9-8.6 8.6-8.6h14.6c12.8 0 23.2 10.4 23.2 23.2v8.5c0 4.8-3.9 8.6-8.6 8.6z" class="st0"/>
  <path d="M185.3 66.3c-4.7 0-8.6-3.9-8.6-8.6s3.9-8.6 8.6-8.6h14.6c3.3 0 6-2.7 6-6v-9.6c0-4.7 3.9-8.6 8.6-8.6 4.7 0 8.6 3.9 8.6 8.6v9.6c0 12.8-10.4 23.2-23.2 23.2h-14.6z" class="st1"/>
</g>
</svg>